<?xml version="1.0" standalone="no"?>
<!DOCTYPE svg PUBLIC "-//W3C//DTD SVG 20010904//EN"
 "http://www.w3.org/TR/2001/REC-SVG-20010904/DTD/svg10.dtd">
<svg version="1.0" xmlns="http://www.w3.org/2000/svg"
 width="1024.000000pt" height="1024.000000pt" viewBox="0 0 1024.000000 1024.000000"
 preserveAspectRatio="xMidYMid meet">

<g transform="translate(0.000000,1024.000000) scale(0.100000,-0.100000)"
fill="#000000" stroke="none">
<path d="M6405 6655 c-150 -28 -261 -89 -363 -201 -112 -121 -170 -272 -192
-500 -18 -184 -1 -164 -139 -164 -140 0 -151 -6 -151 -88 0 -67 10 -72 150
-72 l111 0 -3 -537 -3 -538 -27 -57 c-21 -45 -37 -64 -85 -95 -67 -44 -81 -79
-41 -107 19 -14 67 -16 355 -16 320 0 334 1 353 20 28 28 25 54 -10 82 -16 12
-43 34 -60 47 -82 63 -92 148 -88 771 l3 425 225 0 c253 0 261 -2 297 -73 17
-34 18 -71 18 -522 l0 -485 -23 -47 c-13 -26 -37 -58 -53 -70 -16 -13 -42 -33
-59 -46 -35 -27 -38 -54 -10 -82 19 -19 33 -20 349 -20 l330 0 20 26 c12 15
21 31 21 36 0 10 -24 34 -94 91 -75 63 -74 54 -78 733 -3 475 -6 595 -17 608
-12 14 -63 16 -471 16 l-457 0 -7 53 c-3 28 -6 100 -6 159 0 318 119 508 320
508 79 0 162 -36 184 -79 7 -14 16 -67 18 -116 5 -91 26 -152 67 -199 51 -58
173 -76 251 -36 85 43 133 157 111 260 -45 210 -255 332 -570 329 -58 0 -137
-7 -176 -14z"/>
<path d="M7675 6574 c-115 -35 -219 -71 -232 -79 -12 -9 -26 -27 -29 -42 -6
-22 -2 -30 21 -47 15 -12 44 -37 65 -56 72 -67 70 -42 70 -955 0 -947 6 -884
-96 -981 -35 -33 -64 -68 -64 -77 0 -9 9 -26 20 -37 19 -19 33 -20 340 -20
l321 0 25 25 c14 14 24 33 22 42 -2 10 -28 36 -59 60 -41 31 -62 56 -80 95
-22 50 -24 67 -27 291 -2 143 0 237 6 237 5 0 72 -96 149 -212 215 -327 307
-431 444 -503 119 -62 255 -80 402 -51 86 16 112 41 108 96 -1 9 -35 32 -83
54 -123 58 -239 178 -460 481 -201 274 -243 338 -235 359 8 20 357 299 445
354 120 76 157 107 160 130 8 51 0 52 -294 52 -261 0 -275 -1 -294 -20 -29
-29 -25 -44 30 -105 54 -60 62 -92 36 -143 -25 -47 -382 -382 -408 -382 -4 0
-8 332 -8 738 0 561 -3 741 -12 750 -21 21 -68 12 -283 -54z"/>
<path d="M1385 6498 c-52 -29 -46 -58 24 -133 101 -109 95 -55 99 -860 4 -973
4 -972 -156 -1105 -44 -36 -49 -64 -18 -95 l25 -25 380 0 c417 0 411 -1 411
61 0 24 -10 36 -58 71 -70 50 -114 105 -138 173 -15 43 -18 95 -22 359 l-4
308 179 -5 c98 -2 195 -10 216 -16 51 -16 98 -60 146 -136 42 -66 64 -85 100
-85 50 0 51 8 51 351 l0 319 -25 12 c-40 18 -70 -3 -104 -71 -53 -108 -86
-147 -148 -178 -56 -27 -64 -28 -235 -31 l-178 -4 0 429 c0 235 3 445 6 466
l7 37 178 0 c199 0 257 -9 343 -52 88 -44 156 -118 206 -224 24 -49 52 -99 63
-111 28 -32 70 -30 96 3 29 37 28 119 -4 312 -14 84 -25 164 -25 177 0 14 -9
34 -20 45 -20 20 -33 20 -697 20 -487 -1 -684 -4 -698 -12z"/>
<path d="M3144 6441 c-52 -24 -108 -90 -124 -147 -44 -158 61 -303 221 -304
207 -1 307 249 160 401 -68 69 -170 89 -257 50z"/>
<path d="M4742 5799 c-82 -12 -179 -49 -247 -94 -62 -42 -147 -130 -175 -184
l-19 -36 -1 146 c0 155 -4 169 -49 169 -15 0 -125 -32 -246 -70 -174 -55 -225
-75 -242 -95 -34 -39 -29 -58 30 -101 34 -26 60 -56 77 -89 l25 -50 3 -403 c3
-490 4 -485 -94 -578 -35 -33 -64 -68 -64 -77 0 -9 9 -26 20 -37 19 -19 33
-20 345 -20 312 0 326 1 345 20 28 28 25 55 -11 82 -136 101 -139 112 -139
502 0 334 8 396 60 503 57 116 166 183 297 183 94 0 140 -17 195 -71 35 -35
52 -63 69 -115 23 -67 23 -82 29 -554 5 -507 6 -517 50 -540 11 -6 111 -10
248 -10 209 0 230 2 245 18 33 36 20 70 -43 113 -97 66 -100 81 -100 548 0
428 -5 476 -62 591 -45 93 -134 179 -220 213 -110 44 -200 54 -326 36z"/>
<path d="M3175 5726 c-198 -65 -252 -88 -272 -115 -22 -29 -14 -48 40 -87 34
-26 60 -56 77 -89 l25 -50 0 -410 c0 -370 -2 -415 -18 -462 -12 -34 -30 -62
-53 -80 -61 -49 -94 -81 -94 -93 0 -6 11 -22 25 -35 l24 -25 323 0 c352 0 368
2 368 56 0 25 -8 34 -76 83 -24 17 -51 49 -65 77 l-24 49 -5 613 c-5 666 -2
632 -60 631 -14 0 -110 -29 -215 -63z"/>
</g>
</svg>
